<?xml version="1.0" encoding="utf-8"?>
<?xml-stylesheet type="text/xsl" href="rss1.xsl"?>
<rss version="2.0" xmlns:atom="http://www.w3.org/2005/Atom" xmlns:content="http://purl.org/rss/1.0/modules/content/" xmlns:dc="http://purl.org/dc/elements/1.1/" xmlns:media="http://search.yahoo.com/mrss/">
<channel>
 <title>Getty</title>
 <link>http://www.gettyimg.com/</link>
 <atom:link href="http://www.gettyimg.com/" rel="self" type="application/rss+xml" />

 
                <item>
                <title><![CDATA[【Requests】[REQ AUD] - Ryan Leslie You Know My Speed Album FLAC]]></title>
                <link><![CDATA[https://sharemania.us/threads/ryan-leslie-you-know-my-speed-album-flac.237203/]]></link>
                <description><![CDATA[<article>
<blockquote class="messageText SelectQuoteContainer ugc baseHtml">
does anyone have Ryan Leslies new album You Know My Speed, highest quality possible<br>
<br>
<a href="https://tidal.com/browse/album/341514559" target="_blank" class="externalLink" rel="nofollow">https://tidal.com/browse/album/341514559</a>
<div class="messageTextEndMarker">&nbsp;</div>
</blockquote>
</article>]]></description>
                <author><![CDATA[Jojo1234]]></author>
                </item>

                
                <item>
                <title><![CDATA[【HD Live Performances】HDTV - Sanremo 2024 - Night 1 HDTV H264 1080i DD5.1-ilya2129]]></title>
                <link><![CDATA[https://sharemania.us/threads/sanremo-2024-night-1-hdtv-h264-1080i-dd5-1-ilya2129.237202/]]></link>
                <description><![CDATA[<article>
<blockquote class="messageText SelectQuoteContainer ugc baseHtml">
<div style="text-align: center"><img src="https://i123.fastpic.org/big/2024/0207/18/f091af7b29d5e6c195daa8db86890b18.png?r=1" class="bbCodeImage LbImage" alt="[​IMG]" data-url="https://i123.fastpic.org/big/2024/0207/18/f091af7b29d5e6c195daa8db86890b18.png?r=1" style=""><br>
<br>
<a href="https://postimg.cc/68h1VsC6" target="_blank" class="externalLink" rel="nofollow"><img src="https://i.postimg.cc/68h1VsC6/vlcsnap-2024-02-07-15h02m15s027.png" class="bbCodeImage LbImage" alt="[​IMG]" data-url="https://i.postimg.cc/68h1VsC6/vlcsnap-2024-02-07-15h02m15s027.png"></a> <a href="https://postimg.cc/ft1HWMQC" target="_blank" class="externalLink" rel="nofollow"><img src="https://i.postimg.cc/ft1HWMQC/vlcsnap-2024-02-07-15h02m18s030.png" class="bbCodeImage LbImage" alt="[​IMG]" data-url="https://i.postimg.cc/ft1HWMQC/vlcsnap-2024-02-07-15h02m18s030.png"></a> <a href="https://postimg.cc/1fGWPxC0" target="_blank" class="externalLink" rel="nofollow"><img src="https://i.postimg.cc/1fGWPxC0/vlcsnap-2024-02-07-15h02m23s203.png" class="bbCodeImage LbImage" alt="[​IMG]" data-url="https://i.postimg.cc/1fGWPxC0/vlcsnap-2024-02-07-15h02m23s203.png"></a> <a href="https://postimg.cc/GHwMZ3Qh" target="_blank" class="externalLink" rel="nofollow"><img src="https://i.postimg.cc/GHwMZ3Qh/vlcsnap-2024-02-07-15h02m26s554.png" class="bbCodeImage LbImage" alt="[​IMG]" data-url="https://i.postimg.cc/GHwMZ3Qh/vlcsnap-2024-02-07-15h02m26s554.png"></a> <a href="https://postimg.cc/8J7KVj9s" target="_blank" class="externalLink" rel="nofollow"><img src="https://i.postimg.cc/8J7KVj9s/vlcsnap-2024-02-07-15h02m30s166.png" class="bbCodeImage LbImage" alt="[​IMG]" data-url="https://i.postimg.cc/8J7KVj9s/vlcsnap-2024-02-07-15h02m30s166.png"></a> <a href="https://postimg.cc/jnNMLBsb" target="_blank" class="externalLink" rel="nofollow"><img src="https://i.postimg.cc/jnNMLBsb/vlcsnap-2024-02-07-15h02m35s390.png" class="bbCodeImage LbImage" alt="[​IMG]" data-url="https://i.postimg.cc/jnNMLBsb/vlcsnap-2024-02-07-15h02m35s390.png"></a><br>
<br>
Clara – “Diamanti grezzi” (Rough diamonds)<br>
Sangiovanni – “Finiscimi” (End me)<br>
Florella Mannoia – “Mariposa” (Butterfly [in Spanish])<br>
La Sad – “Autodistruttivo” (Self-destructive)<br>
Irama – “Tu no” (Not you)<br>
Ghali – “Casa mia” (My home)<br>
Negramaro – “Ricominciamo tutto” (Let’s start all over again)<br>
Annalisa – “Sinceramente” (Sincerely)<br>
Mahmood – “Tuta gold” (Golden suit)<br>
Diodato – “Ti muovi” (You move)<br>
Loredana Bertè – “Pazza” (Crazy)<br>
Geolier – “I p’me, tu p’ te” (I for me, you for you [in Neapolitan dialect])<br>
Alessandra Amoroso – “Fino a qui” (Until here)<br>
The Kolors – “Un ragazzo una ragazza” (A boy a girl)<br>
Angelina Mango – “La noia” (Boredom)<br>
Il Volo – “Capolavoro” (Masterpiece)<br>
BigMama – “La rabbia non ti basta” (Anger is not enough for you)<br>
Ricchi e Poveri – “Ma non tutta la vita” (But not for life)<br>
Emma – “Apnea”<br>
Renga Nek – “Pazzo di te” (Mad about you)<br>
Mr. Rain – “Due altalene” (Two swings)<br>
BNKR44 – “Governo punk” (Punk government)<br>
Gazelle – “Tutto qui” (That’s all)<br>
Dargen D’Amico – “Onda alta” (High wave)<br>
Rose Villain – “Click boom!”<br>
Santi Francesi – “L’amore in bocca” (Love in the mouth)<br>
Fred De Palma – “Il cielo non ci vuole” (The sky does not want us)<br>
Maninni – “Spettacolare” (Spectacular)<br>
Alfa – “Vai!” (Go!)<br>
Il Tre – “Fragili” (Fragile)<br>
​</div><br>
<div class="bbCodeBlock bbCodeCode">
<div class="type">Code:</div>
<pre>General
ID                                       : 1 (0x1)
Complete name                            : D:\Sanremo 2024 - Night 1 HDTV H264 1080i DD5.1-ilya2129.ts
Format                                   : MPEG-TS
File size                                : 18.0 GiB
Duration                                 : 4 h 31 min
Overall bit rate mode                    : Variable
Overall bit rate                         : 9 495 kb/s
Frame rate                               : 25.000 FPS

Video
ID                                       : 302 (0x12E)
Menu ID                                  : 1 (0x1)
Format                                   : AVC
Format/Info                              : Advanced Video Codec
Format profile                           : High@L4
Format settings                          : CABAC / 3 Ref Frames
Format settings, CABAC                   : Yes
Format settings, Reference frames        : 3 frames
Codec ID                                 : 27
Duration                                 : 4 h 31 min
Bit rate                                 : 8 185 kb/s
Width                                    : 1 920 pixels
Height                                   : 1 080 pixels
Display aspect ratio                     : 16:9
Active Format Description                : Full frame 16:9 image
Frame rate                               : 25.000 FPS
Color space                              : YUV
Chroma subsampling                       : 4:2:0
Bit depth                                : 8 bits
Scan type                                : MBAFF
Scan type, store method                  : Interleaved fields
Scan order                               : Top Field First
Bits/(Pixel*Frame)                       : 0.158
Stream size                              : 15.5 GiB (86%)

Audio #1
ID                                       : 303 (0x12F)
Menu ID                                  : 1 (0x1)
Format                                   : MPEG Audio
Format version                           : Version 1
Format profile                           : Layer 2
Codec ID                                 : 3
Duration                                 : 4 h 31 min
Bit rate mode                            : Constant
Bit rate                                 : 192 kb/s
Channel(s)                               : 2 channels
Sampling rate                            : 48.0 kHz
Frame rate                               : 41.667 FPS (1152 SPF)
Compression mode                         : Lossy
Delay relative to video                  : -80 ms
Stream size                              : 372 MiB (2%)
Language                                 : Italian

Audio #2
ID                                       : 304 (0x130)
Menu ID                                  : 1 (0x1)
Format                                   : AC-3
Format/Info                              : Audio Coding 3
Commercial name                          : Dolby Digital
Codec ID                                 : 6
Duration                                 : 4 h 31 min
Bit rate mode                            : Constant
Bit rate                                 : 384 kb/s
Channel(s)                               : 6 channels
Channel layout                           : L R C LFE Ls Rs
Sampling rate                            : 48.0 kHz
Frame rate                               : 31.250 FPS (1536 SPF)
Compression mode                         : Lossy
Delay relative to video                  : -80 ms
Stream size                              : 745 MiB (4%)
Language                                 : oth
Service kind                             : Complete Main

Audio #3
ID                                       : 305 (0x131)
Menu ID                                  : 1 (0x1)
Format                                   : MPEG Audio
Format version                           : Version 1
Format profile                           : Layer 2
Codec ID                                 : 3
Duration                                 : 4 h 31 min
Bit rate mode                            : Constant
Bit rate                                 : 192 kb/s
Channel(s)                               : 2 channels
Sampling rate                            : 48.0 kHz
Frame rate                               : 41.667 FPS (1152 SPF)
Compression mode                         : Lossy
Delay relative to video                  : -80 ms
Stream size                              : 372 MiB (2%)
Language                                 : English

Audio #4
ID                                       : 631 (0x277)
Menu ID                                  : 1 (0x1)
Format                                   : MPEG Audio
Format version                           : Version 1
Format profile                           : Layer 2
Codec ID                                 : 3
Duration                                 : 4 h 31 min
Bit rate mode                            : Constant
Bit rate                                 : 64.0 kb/s
Channel(s)                               : 1 channel
Sampling rate                            : 48.0 kHz
Frame rate                               : 41.667 FPS (1152 SPF)
Compression mode                         : Lossy
Delay relative to video                  : -80 ms
Stream size                              : 124 MiB (1%)
Language                                 : oth

Text #1
ID                                       : 310 (0x136)-777
Menu ID                                  : 1 (0x1)
Format                                   : Teletext Subtitle
Language                                 : Italian

Text #2
ID                                       : 310 (0x136)-778
Menu ID                                  : 1 (0x1)
Format                                   : Teletext Subtitle
Language                                 : English

Other
ID                                       : 310 (0x136)-100
Menu ID                                  : 1 (0x1)
Format                                   : Teletext
Language                                 : Italian

</pre>
</div><div style="text-align: center">Torrent
<div class="bbCodeBlock bbCodeVfcHH HiddenContent">
<div class="attribution type">Hidden Content:</div>
<blockquote>You must reply before you can see the hidden data contained here.</blockquote>
</div></div>
<div class="messageTextEndMarker">&nbsp;</div>
</blockquote>
</article>]]></description>
                <author><![CDATA[ilya2129]]></author>
                </item>

                </channel></rss>